<svg width="505" height="258" viewBox="0 0 505 258" fill="none" xmlns="http://www.w3.org/2000/svg">
<g filter="url(#filter0_b_5724_68521)">
<path d="M0 59.5221C0 40.6659 0 31.2378 5.85786 25.3799C11.7157 19.522 21.1438 19.522 40 19.522H126.25H166.9C181.7 19.522 196.316 16.246 209.7 9.92912C236.8 -2.86143 268.2 -2.86143 295.3 9.92912C308.684 16.246 323.3 19.522 338.1 19.522H378.75H465C483.856 19.522 493.284 19.522 499.142 25.3799C505 31.2378 505 40.6658 505 59.522V304.271C505 323.127 505 332.556 499.142 338.413C493.284 344.271 483.856 344.271 465 344.271H40C21.1438 344.271 11.7157 344.271 5.85786 338.413C0 332.556 0 323.127 0 304.271L0 59.5221Z" fill="#FFFCED" fill-opacity="0.37"/>
<path d="M0.25 59.5221C0.25 50.0869 0.250531 43.0357 0.980004 37.6099C1.70851 32.1913 3.1599 28.4314 6.03464 25.5567C8.90938 22.6819 12.6693 21.2305 18.0879 20.502C23.5136 19.7726 30.5648 19.772 40 19.772H126.25H166.9C181.737 19.772 196.389 16.4879 209.807 10.1552C236.839 -2.60345 268.161 -2.60345 295.193 10.1552C308.611 16.4879 323.263 19.772 338.1 19.772H378.75H465C474.435 19.772 481.486 19.7726 486.912 20.502C492.331 21.2305 496.091 22.6819 498.965 25.5567C501.84 28.4314 503.292 32.1913 504.02 37.6099C504.749 43.0356 504.75 50.0869 504.75 59.522V304.271C504.75 313.706 504.749 320.758 504.02 326.183C503.292 331.602 501.84 335.362 498.965 338.237C496.091 341.111 492.331 342.563 486.912 343.291C481.486 344.021 474.435 344.021 465 344.021H40C30.5648 344.021 23.5136 344.021 18.0879 343.291C12.6693 342.563 8.90938 341.111 6.03464 338.237C3.1599 335.362 1.70851 331.602 0.980004 326.183C0.250531 320.758 0.25 313.706 0.25 304.271V59.5221Z" stroke="url(#paint0_linear_5724_68521)" stroke-width="0.5"/>
</g>
<defs>
<filter id="filter0_b_5724_68521" x="-55" y="-54.6641" width="615" height="453.936" filterUnits="userSpaceOnUse" color-interpolation-filters="sRGB">
<feFlood flood-opacity="0" result="BackgroundImageFix"/>
<feGaussianBlur in="BackgroundImageFix" stdDeviation="27.5"/>
<feComposite in2="SourceAlpha" operator="in" result="effect1_backgroundBlur_5724_68521"/>
<feBlend mode="normal" in="SourceGraphic" in2="effect1_backgroundBlur_5724_68521" result="shape"/>
</filter>
<linearGradient id="paint0_linear_5724_68521" x1="5.50284e-05" y1="9.09411" x2="505" y2="136.461" gradientUnits="userSpaceOnUse">
<stop stop-color="white"/>
<stop offset="0.536458" stop-opacity="0"/>
<stop offset="1" stop-color="white"/>
</linearGradient>
</defs>
</svg>
