<svg width="120" height="111" viewBox="0 0 120 111" fill="none" xmlns="http://www.w3.org/2000/svg">
<path fill-rule="evenodd" clip-rule="evenodd" d="M84.3294 83.2595L74.5008 74.1813L68.9746 69.0961L63.0404 63.6356C61.1859 61.9633 58.1817 61.9633 56.3644 63.6356L35.0383 83.2595C33.221 84.9318 33.221 87.6962 35.0383 89.4026L56.3644 108.992C58.1817 110.699 61.1859 110.699 63.0404 108.992L84.3294 89.4026C86.1838 87.6962 86.1838 84.9318 84.3294 83.2595V83.2595Z" fill="#00C58E"/>
<path fill-rule="evenodd" clip-rule="evenodd" d="M50.6541 52.2712L29.3651 32.6473C27.5106 30.975 24.5065 30.975 22.6891 32.6473L1.36301 52.2712C-0.454338 53.9435 -0.454338 56.7079 1.36301 58.4144L22.6891 78.0041C24.5065 79.7106 27.5106 79.7106 29.3651 78.0041L50.6541 58.4144C52.5085 56.7079 52.5085 53.9435 50.6541 52.2712Z" fill="#00C58E"/>
<path fill-rule="evenodd" clip-rule="evenodd" d="M84.3294 21.2834L63.0404 1.6595C61.1859 -0.0128013 58.1817 -0.0128013 56.3644 1.6595L50.764 6.81291L45.2377 11.8981L35.0383 21.2834C33.221 22.9557 33.221 25.7201 35.0383 27.4266L56.3644 47.0163C58.1817 48.7228 61.1859 48.7228 63.0404 47.0163L84.3294 27.4266C86.1838 25.7201 86.1838 22.9557 84.3294 21.2834V21.2834Z" fill="#108775"/>
<path d="M118.007 52.2712L96.7184 32.6473C94.8639 30.975 91.8597 30.975 90.0424 32.6473L68.7163 52.2712C66.8989 53.9435 66.8989 56.7079 68.7163 58.4144L90.0424 78.0041C91.8597 79.7106 94.8639 79.7106 96.7184 78.0041L118.007 58.4144C119.862 56.7079 119.862 53.9435 118.007 52.2712Z" fill="#2F495E"/>
</svg>
