<svg width="60" height="61" viewBox="0 0 60 61" fill="none" xmlns="http://www.w3.org/2000/svg">
<rect x="0.232666" y="0.825195" width="59.587" height="59.587" rx="10" fill="white"/>
<path d="M22.4141 26.1494C23.8739 26.8794 25.1253 27.9817 26.034 29.3522C26.5554 30.1268 26.5554 31.1249 26.034 31.8996C25.1253 33.2552 23.8739 34.3575 22.4141 35.0875" stroke="#292D32" stroke-width="1.5" stroke-linecap="round" stroke-linejoin="round"/>
<path d="M31.5159 35.0869H37.4746" stroke="#292D32" stroke-width="1.5" stroke-linecap="round" stroke-linejoin="round"/>
<path d="M25.5571 45.5152H34.4952C41.9436 45.5152 44.9229 42.5358 44.9229 35.0875V26.1494C44.9229 18.701 41.9436 15.7217 34.4952 15.7217H25.5571C18.1087 15.7217 15.1294 18.701 15.1294 26.1494V35.0875C15.1294 42.5358 18.1087 45.5152 25.5571 45.5152Z" stroke="#292D32" stroke-width="1.5" stroke-linecap="round" stroke-linejoin="round"/>
</svg>
